<svg id="Ebene_1" xmlns="http://www.w3.org/2000/svg" viewBox="0 0 247 75">
  <style>
    .st0{fill:#103a5d}.st4{display:inline;fill:#0e3a5c}
  </style>
  <switch>
    <g>
      <path class="st0" d="M232.6 20.4c-8.7 0-14.9 1.7-14.9 9.3v1.4c0 4.1 1.5 8.2 6.9 10.2l9.1 3.5c3.1 1.2 3.9 2.3 3.9 3.9v.7c0 2.4-1.5 3-6.1 3h-13.4c-.8 0-1.1.3-1.1 1.1v4.3c0 .6.2 1 1 1 2.3.2 7.5.6 13.5.6 9.1 0 14.3-1.8 14.3-9.7v-.9c0-4.3-1-7.8-7.1-10.1l-9.1-3.3c-2.9-1.1-3.8-2.4-3.8-4.1v-.8c0-2.1 1.7-3 4.6-3h12.7c.8 0 1.1-.3 1.1-1v-4.1c0-.6-.3-1-1-1.1-3.8-.7-7.6-.9-10.6-.9m-28.2.4c-.7 0-1 .3-1 1V58c0 .7.3 1 1 1h6.3c.7 0 1-.3 1-1V21.8c0-.7-.3-1-1-1h-6.3zm3.2-15.7c-3.3 0-5.1 1.7-5.1 4.8 0 3 1.8 4.8 5.1 4.8s5-1.7 5-4.8c-.1-3.1-1.8-4.8-5-4.8m-19.8 22.6v23.9c-2.4.3-5.3.4-7.5.4-7.8 0-8.8-2.3-8.8-12.2 0-9.5.8-12.2 8.4-12.2h7.9zm-7.6-7.3c-13.9 0-17.1 3.9-17.1 19.2 0 15.6 3.1 19.8 15.9 19.8 3.3 0 5.9-.1 8.9-.6v.3c0 5.5-1.7 7.1-8.6 7.1h-10.8c-.7 0-1 .3-1 1v4.1c0 .6.3 1 1 1.1 3.7.6 7.9.8 11.3.8 14 0 16.4-4.4 16.5-16.4V23.1c0-.8-.5-1.3-1.3-1.4-3.6-.7-8.8-1.3-14.8-1.3"/>
      <path d="M123.6.8c-.8 0-1.2.2-1.4.8l-10.1 35.2c-.3 1.1-.5 1.8-.5 2.6v4.1c0 .8.4 1.1 1.1 1.1h25.7v13.3c0 .8.4 1.1 1.1 1.1h7.5c.8 0 1.1-.4 1.1-1.1V44.6h9.1c.8 0 1.2-.3 1.2-1.1v-6.3c0-.7-.4-1.1-1.2-1.1h-9.1V18.5c0-1-.5-1.1-1.4-.8l-7.5 2.7c-.6.2-.9.7-.9 1.4V36h-16.2l9.7-33.9c.2-.8.1-1.4-.8-1.4h-7.4z" fill="#6b7691"/>
      <path class="st0" d="M90.1 20.4c-4.2 0-10.4.1-15.5 1.1-.6.1-1 .2-1 1.1V58c0 .7.3 1 1 1H81c.7 0 1-.3 1-1V27.7h8c6.5 0 8.1.4 8.1 10.7V58c0 .7.3 1 1 1h6.2c.7 0 1.1-.3 1.1-1V36.8c0-14.4-3.5-16.4-16.3-16.4m-39.5 7.3c7.4 0 8.4 2.4 8.4 12.2 0 9.8-1 12.2-8.4 12.2s-8.4-2.4-8.4-12.2c0-9.8 1-12.2 8.4-12.2m0-7.3c-13.8 0-16.8 3.9-16.8 19.5s3 19.4 16.8 19.4 16.9-3.9 16.9-19.4c0-15.6-3.1-19.5-16.9-19.5m-32.9 0C3.7 20.4.9 24.3.9 39.8c0 15.6 2.8 19.5 16.8 19.5 2.8 0 7.3-.1 10.9-.8.7-.1 1-.5 1-1.2v-4.2c0-.7-.3-1-1.1-1H17.7c-7.4 0-8.4-2.5-8.4-12.2s1-12.2 8.4-12.2h10.9c.8 0 1.1-.3 1.1-1v-4.2c0-.8-.3-1.1-1-1.2-3.7-.7-8.2-.9-11-.9"/>
    </g>
  </switch>
</svg>
