<?xml version="1.0" encoding="utf-8"?>
<!-- Generator: Adobe Illustrator 16.0.0, SVG Export Plug-In . SVG Version: 6.00 Build 0)  -->
<!DOCTYPE svg PUBLIC "-//W3C//DTD SVG 1.1//EN" "http://www.w3.org/Graphics/SVG/1.1/DTD/svg11.dtd">
<svg version="1.1" id="Ebene_1" xmlns="http://www.w3.org/2000/svg" xmlns:xlink="http://www.w3.org/1999/xlink" x="0px" y="0px"
	 width="70px" height="25px" viewBox="0 0 70 25" enable-background="new 0 0 70 25" xml:space="preserve">
<g>
	<path fill="#FFFFFF" d="M1.519,18.765v-5.43c0-0.813,0.199-1.444,0.598-1.892c0.398-0.448,1.043-0.726,1.935-0.834h0.486h4.195
		v1.823H4.538c-0.122,0-0.263,0.027-0.425,0.081c-0.514,0.176-0.77,0.541-0.77,1.095v4.762v0.243
		c0.081,0.393,0.244,0.676,0.488,0.852s0.495,0.263,0.753,0.263h4.17v1.824H4.578c-0.622,0-1.148-0.129-1.581-0.387
		C2.011,20.623,1.519,19.823,1.519,18.765z"/>
	<path fill="#FFFFFF" d="M10.8,18.852v-5.705c0-1.502,0.811-2.348,2.432-2.537h0.486h3.344h0.446
		c1.648,0.23,2.472,1.071,2.472,2.521v5.716c0,0.542-0.115,0.997-0.345,1.363c-0.229,0.365-0.615,0.705-1.155,1.017
		c-0.392,0.217-0.865,0.325-1.418,0.325h-3.405c-1.121,0-1.938-0.446-2.452-1.34C11.07,19.766,10.935,19.312,10.8,18.852z
		 M13.94,19.728h2.938c0.851,0,1.277-0.459,1.277-1.378v-4.6c0-0.878-0.426-1.317-1.277-1.317H13.94
		c-0.878,0-1.317,0.439-1.317,1.317v4.519C12.624,19.241,13.063,19.728,13.94,19.728z"/>
	<path fill="#FFFFFF" d="M22.22,21.552v-8.126c0-0.905,0.263-1.601,0.79-2.087s1.29-0.729,2.29-0.729h2.877
		c2.053,0,2.884,0.938,2.884,2.816v8.126h-1.628v-7.903v-0.445c-0.095-0.486-0.506-0.729-1.236-0.729H25.3
		c-0.473,0-0.8,0.084-0.983,0.253c-0.182,0.169-0.273,0.477-0.273,0.922v7.903H22.22z"/>
	<path fill="#FFFFFF" d="M47.229,25v-1.8h5.837c0.788,0,1.236-0.34,1.344-1.02v-0.24v-0.46h-4.301c-0.76,0-1.427-0.286-2-0.86
		c-0.279-0.293-0.483-0.606-0.609-0.939c-0.127-0.333-0.19-0.713-0.19-1.141v-5.1c0-1.267,0.542-2.12,1.627-2.56
		c0.321-0.134,0.63-0.2,0.925-0.2h3.837c1.46,0,2.297,0.713,2.512,2.14v0.48v9.04v0.479c-0.147,0.733-0.469,1.28-0.965,1.641
		C54.75,24.82,54.053,25,53.156,25H47.229z M49.069,18.558c0.135,0.748,0.524,1.123,1.169,1.123h3.184h0.223
		c0.281-0.08,0.479-0.194,0.594-0.341c0.114-0.147,0.172-0.395,0.172-0.742v-0.2v-4.693c0-0.228-0.014-0.401-0.041-0.521
		c-0.026-0.12-0.08-0.228-0.161-0.321c-0.188-0.254-0.45-0.381-0.786-0.381h-3.063h-0.242c-0.698,0.121-1.048,0.515-1.048,1.184
		v4.733V18.558z"/>
	<path fill="#FFFFFF" d="M57.885,8.32c0-0.347,0.119-0.64,0.359-0.88s0.526-0.36,0.86-0.36c0.333,0,0.623,0.12,0.87,0.36
		c0.246,0.24,0.37,0.54,0.37,0.9c0,0.347-0.12,0.64-0.36,0.88s-0.527,0.359-0.86,0.359c-0.347,0-0.64-0.119-0.88-0.359
		S57.885,8.681,57.885,8.32z M58.225,21.48h1.8v-10.8h-1.8V21.48z"/>
	<path fill="#FFFFFF" d="M62.003,21.48v-1.8h5.047h0.438c0.158,0,0.321-0.073,0.486-0.22c0.166-0.147,0.249-0.434,0.249-0.86v-0.82
		c0-0.68-0.354-1.02-1.061-1.02h-2.439c-1.16,0-1.967-0.387-2.42-1.16c-0.2-0.36-0.3-0.72-0.3-1.08v-1.38
		c0-0.76,0.213-1.36,0.638-1.8c0.426-0.44,1.011-0.66,1.756-0.66h5.626v1.8H64.9h-0.34c-0.105,0-0.259,0.05-0.458,0.15
		c-0.199,0.1-0.299,0.316-0.299,0.649v0.78c0,0.146,0.053,0.307,0.16,0.479c0.173,0.268,0.446,0.4,0.819,0.4h2.681h0.5
		c0.626,0.135,1.126,0.426,1.5,0.875c0.373,0.45,0.56,0.977,0.56,1.58v1.711c0,0.442-0.126,0.858-0.378,1.247
		c-0.066,0.121-0.143,0.231-0.229,0.332c-0.087,0.101-0.196,0.205-0.329,0.313c-0.49,0.321-0.941,0.482-1.353,0.482H62.003z"/>
	<path fill="#FFFFFF" d="M33.128,12.706l5.853-9.521l3.049,0.004l-6.268,10.365l6.529,0.025V3.189h2.667V21.48h-2.667l0.02-5.4
		h-6.707c-0.863,0-1.561-0.117-2.052-0.533s-0.736-0.947-0.736-1.593c0-0.187,0.02-0.373,0.06-0.561
		C32.916,13.207,33,12.978,33.128,12.706z"/>
</g>
<g>
	<path fill="#778899" d="M0.891,18.168v-5.43c0-0.813,0.199-1.444,0.598-1.892c0.398-0.448,1.043-0.726,1.935-0.834H3.91h4.195
		v1.823H3.91c-0.122,0-0.263,0.027-0.425,0.081c-0.514,0.176-0.77,0.541-0.77,1.095v4.762v0.243
		c0.081,0.393,0.244,0.676,0.488,0.852s0.495,0.263,0.753,0.263h4.17v1.824H3.95c-0.622,0-1.148-0.129-1.581-0.387
		C1.383,20.026,0.891,19.227,0.891,18.168z"/>
	<path fill="#778899" d="M10.172,18.255V12.55c0-1.502,0.811-2.348,2.432-2.537h0.486h3.344h0.446
		c1.648,0.23,2.472,1.071,2.472,2.521v5.716c0,0.542-0.115,0.997-0.345,1.363c-0.229,0.365-0.615,0.705-1.155,1.017
		c-0.392,0.217-0.865,0.325-1.418,0.325h-3.405c-1.121,0-1.938-0.446-2.452-1.34C10.442,19.169,10.307,18.715,10.172,18.255z
		 M13.313,19.131h2.938c0.851,0,1.277-0.459,1.277-1.378v-4.6c0-0.878-0.426-1.317-1.277-1.317h-2.938
		c-0.878,0-1.317,0.439-1.317,1.317v4.519C11.996,18.645,12.435,19.131,13.313,19.131z"/>
	<path fill="#778899" d="M21.592,20.955v-8.126c0-0.905,0.263-1.601,0.79-2.087s1.29-0.729,2.29-0.729h2.877
		c2.053,0,2.95,0.938,2.95,2.816v8.126h-1.693v-7.903v-0.445c-0.095-0.486-0.506-0.729-1.236-0.729h-2.898
		c-0.473,0-0.8,0.084-0.983,0.253c-0.182,0.169-0.273,0.477-0.273,0.922v7.903H21.592z"/>
	<path fill="#778899" d="M46.601,24.563v-1.8h5.837c0.788,0,1.236-0.5,1.344-1.18v-0.24v-0.46h-4.301c-0.76,0-1.427-0.286-2-0.86
		c-0.279-0.293-0.483-0.606-0.609-0.939c-0.127-0.333-0.19-0.713-0.19-1.141v-5.1c0-1.267,0.542-2.12,1.627-2.56
		c0.321-0.134,0.63-0.2,0.925-0.2h3.837c1.46,0,2.297,0.713,2.512,2.14v0.48v9.04v0.479c-0.147,0.733-0.469,1.28-0.965,1.641
		c-0.495,0.359-1.191,0.699-2.089,0.699H46.601z M48.441,17.961c0.135,0.748,0.524,1.123,1.169,1.123h3.184h0.223
		c0.281-0.08,0.479-0.194,0.594-0.341c0.114-0.147,0.172-0.395,0.172-0.742v-0.2v-4.693c0-0.228-0.014-0.401-0.041-0.521
		c-0.026-0.12-0.08-0.228-0.161-0.321c-0.188-0.254-0.45-0.381-0.786-0.381h-3.063h-0.242c-0.698,0.121-1.048,0.515-1.048,1.184
		v4.733V17.961z"/>
	<path fill="#778899" d="M57.257,7.724c0-0.347,0.119-0.64,0.359-0.88s0.526-0.36,0.86-0.36c0.333,0,0.623,0.12,0.87,0.36
		c0.246,0.24,0.37,0.54,0.37,0.9c0,0.347-0.12,0.64-0.36,0.88s-0.527,0.359-0.86,0.359c-0.347,0-0.64-0.119-0.88-0.359
		S57.257,8.084,57.257,7.724z M57.597,20.884h1.8v-10.8h-1.8V20.884z"/>
	<path fill="#778899" d="M61.375,20.884v-1.8h5.047h0.438c0.158,0,0.321-0.073,0.486-0.22c0.166-0.147,0.249-0.434,0.249-0.86v-0.82
		c0-0.68-0.354-1.02-1.061-1.02h-2.439c-1.16,0-1.967-0.387-2.42-1.16c-0.2-0.36-0.3-0.72-0.3-1.08v-1.38
		c0-0.76,0.213-1.36,0.638-1.8c0.426-0.44,1.011-0.66,1.756-0.66h5.626v1.8h-5.123h-0.34c-0.105,0-0.259,0.05-0.458,0.15
		c-0.199,0.1-0.299,0.316-0.299,0.649v0.78c0,0.146,0.053,0.307,0.16,0.479c0.173,0.268,0.446,0.4,0.819,0.4h2.681h0.5
		c0.626,0.135,1.126,0.426,1.5,0.875c0.373,0.45,0.56,0.977,0.56,1.58v1.711c0,0.442-0.126,0.858-0.378,1.247
		c-0.066,0.121-0.143,0.231-0.229,0.332c-0.087,0.101-0.196,0.205-0.329,0.313c-0.49,0.321-0.941,0.482-1.353,0.482H61.375z"/>
	<path fill="#778899" d="M32.5,12.109l5.853-9.521l3.049,0.004l-6.268,10.365l6.529,0.025V2.593h2.667v18.291h-2.667v-5.31h-6.707
		c-0.864,0-1.542-0.208-2.033-0.624s-0.736-0.947-0.736-1.593c0-0.187,0.02-0.373,0.06-0.561
		C32.288,12.61,32.372,12.381,32.5,12.109z"/>
</g>
</svg>
