<svg xmlns="http://www.w3.org/2000/svg" width="148.18" height="53" viewBox="0 0 148.18 53"><path d="M138.66,21.66c-4.65,0-8,.93-8,5v.74a5.33,5.33,0,0,0,3.72,5.48l4.92,1.86c1.67.63,2.12,1.23,2.12,2.12v.37c0,1.31-.78,1.6-3.28,1.6h-7.22c-.45,0-.6.19-.6.6v2.31c0,.33.12.52.56.56,1.23.11,4,.33,7.26.33,4.88,0,7.71-1,7.71-5.21v-.48c0-2.31-.52-4.21-3.8-5.44l-4.88-1.79c-1.56-.59-2-1.3-2-2.19v-.45c0-1.16.89-1.64,2.45-1.64h6.85c.41,0,.6-.19.6-.56v-2.2c0-.34-.19-.53-.56-.6a37.67,37.67,0,0,0-5.81-.41m-15.21.19a.49.49,0,0,0-.56.41h0a.38.38,0,0,0,0,.15V41.88a.5.5,0,0,0,.43.56.29.29,0,0,0,.13,0h3.39a.5.5,0,0,0,.56-.43.29.29,0,0,0,0-.13V22.41a.49.49,0,0,0-.41-.56h0a.38.38,0,0,0-.15,0Zm1.71-8.45a2.39,2.39,0,0,0-2.73,2h0a2.08,2.08,0,0,0,0,.61,2.7,2.7,0,0,0,5.39,0,2.36,2.36,0,0,0-2.13-2.57h0a1.69,1.69,0,0,0-.55,0m-10.6,12.17V38.45a29,29,0,0,1-4.06.23c-4.17,0-4.73-1.23-4.73-6.56,0-5.1.41-6.55,4.51-6.55Zm-4.13-3.91c-7.49,0-9.2,2.12-9.2,10.31,0,8.42,1.68,10.65,8.56,10.65a29.27,29.27,0,0,0,4.77-.33v.18c0,2.94-.89,3.84-4.62,3.84h-5.8c-.38,0-.56.15-.56.56V49.1a.57.57,0,0,0,.52.6,42.92,42.92,0,0,0,6.1.41c7.56,0,8.83-2.35,8.87-8.83V23.08a.7.7,0,0,0-.65-.75h-.06a43,43,0,0,0-7.93-.67" style="fill:#0d3a5c;stroke:#fff;stroke-miterlimit:10;stroke-width:0.75px"/><path d="M80,11.11c-.45,0-.66.08-.74.41L73.82,30.44a5.14,5.14,0,0,0-.29,1.39V34c0,.45.21.61.62.61H88v7.17a.55.55,0,0,0,.47.62h4.2a.53.53,0,0,0,.61-.44v0a.43.43,0,0,0,0-.16V34.65h4.88c.45,0,.65-.16.65-.61v-3.4c0-.37-.2-.57-.65-.57H93.23V20.61c0-.54-.28-.62-.73-.45l-4.06,1.43a.71.71,0,0,0-.49.74v7.74H79.23l5.24-18.23c.12-.45,0-.73-.45-.73Z" style="fill:#6c7792;stroke:#fff;stroke-miterlimit:10;stroke-width:0.75px"/><path d="M62,21.66a44.85,44.85,0,0,0-8.34.6c-.34.07-.52.11-.52.59v19c0,.37.15.56.52.56H57a.49.49,0,0,0,.56-.41h0a.38.38,0,0,0,0-.15V25.57h4.28c3.5,0,4.36.22,4.36,5.73V41.88a.5.5,0,0,0,.43.56.29.29,0,0,0,.13,0h3.35a.53.53,0,0,0,.6-.45h0V30.48c0-7.78-1.9-8.82-8.79-8.82m-21.2,3.91c4,0,4.55,1.3,4.55,6.59s-.56,6.55-4.55,6.55-4.54-1.3-4.54-6.55.56-6.59,4.54-6.59m0-3.91c-7.44,0-9,2.09-9,10.5s1.6,10.46,9,10.46,9.09-2.08,9.09-10.46-1.64-10.5-9.09-10.5M23,21.66c-7.56,0-9,2.09-9,10.46s1.49,10.5,9,10.5a37.34,37.34,0,0,0,5.88-.41.59.59,0,0,0,.56-.62h0V39.27c0-.37-.19-.56-.6-.56H23c-4,0-4.51-1.34-4.51-6.59S19,25.57,23,25.57h5.84c.41,0,.6-.19.6-.56V22.74a.6.6,0,0,0-.52-.67h0A37.85,37.85,0,0,0,23,21.66" style="fill:#0d3a5c;stroke:#fff;stroke-miterlimit:10;stroke-width:0.75px"/><path d="M6.2,3.71c.17,0,.23.08.23.24V7c.61-.06,1.23-.09,1.84-.09,2.73,0,3.45,1,3.45,4.29s-.72,4.2-3.9,4.2a20.24,20.24,0,0,1-3.3-.29.34.34,0,0,1-.31-.37h0V4c0-.16.06-.24.22-.24Zm.23,5.07v4.59a10,10,0,0,0,1.44.11c1.51,0,1.62-.6,1.62-2.36,0-1.93-.2-2.34-1.71-2.34Z" style="fill:#0d3a5c;stroke:#fff;stroke-miterlimit:10;stroke-width:0.75px"/><path d="M21.41,6.92c.15,0,.21.08.21.23v7.74c0,.19-.06.22-.21.25a20.63,20.63,0,0,1-3.6.26c-2.88,0-3.62-.54-3.62-3.62V7.15a.21.21,0,0,1,.19-.23H16.2c.15,0,.21.08.21.23v4.06c0,2.16.24,2.27,1.62,2.27h1.35V7.15a.21.21,0,0,1,.19-.23h1.84Z" style="fill:#0d3a5c;stroke:#fff;stroke-miterlimit:10;stroke-width:0.75px"/><path d="M26.82,4.58a1.17,1.17,0,0,1-1.07,1.23h-.22a1.16,1.16,0,0,1-1.31-1h0a.89.89,0,0,1,0-.23c0-.76.48-1.2,1.32-1.2a1.15,1.15,0,0,1,1.28,1v.22ZM26.4,6.92c.15,0,.22.08.22.23v7.93c0,.17-.07.24-.22.24H24.63c-.15,0-.23-.07-.23-.24V7.15a.21.21,0,0,1,.19-.23H26.4Z" style="fill:#0d3a5c;stroke:#fff;stroke-miterlimit:10;stroke-width:0.75px"/><path d="M31.42,3.71c.15,0,.22.08.22.23V15.08c0,.17-.07.24-.22.24H29.65c-.15,0-.23-.07-.23-.24V3.94a.21.21,0,0,1,.19-.23h1.81Z" style="fill:#0d3a5c;stroke:#fff;stroke-miterlimit:10;stroke-width:0.75px"/><path d="M37,4.6c.15,0,.24.06.24.22V7h1.38c.16,0,.25.07.25.22v1.2c0,.15-.09.23-.25.23H37.19v4.09c0,.65.22.77.88.77h.62c.18,0,.25.06.25.22V15c0,.18-.07.25-.24.28a6,6,0,0,1-1.27.14c-1.29,0-2.46-.05-2.46-1.94V8.62h-.89a.21.21,0,0,1-.24-.18h0V7.19c0-.15.08-.22.24-.22H35V5.3c0-.15.06-.21.21-.24Z" style="fill:#0d3a5c;stroke:#fff;stroke-miterlimit:10;stroke-width:0.75px"/><path d="M54.84,6.92c.15,0,.2,0,.18.21L53.73,13.9c-.25,1.33-.67,1.5-2,1.5-1.73,0-1.91-.17-2.21-1.5l-.73-3.33L48,13.9c-.28,1.33-.48,1.5-2.19,1.5-1.39,0-1.8-.17-2.07-1.5L42.47,7.13c0-.16,0-.21.18-.21h1.9c.09,0,.14,0,.17.21l1,6.12c.06.26.11.29.24.29s.2,0,.24-.29l1.4-5.86c0-.17.12-.21.24-.21h1.75c.11,0,.2,0,.23.21l1.39,5.86c.06.26.09.29.24.29s.2,0,.26-.29l1-6.12c0-.16.06-.21.17-.21Z" style="fill:#0d3a5c;stroke:#fff;stroke-miterlimit:10;stroke-width:0.75px"/><path d="M59.68,4.58a1.14,1.14,0,0,1-1,1.23h-.24a1.16,1.16,0,0,1-1.31-1h0a.89.89,0,0,1,0-.23c0-.76.48-1.2,1.32-1.2a1.13,1.13,0,0,1,1.28,1v0A1.17,1.17,0,0,1,59.68,4.58Zm-.42,2.34a.21.21,0,0,1,.23.19h0v8c0,.17-.08.24-.23.24H57.49c-.15,0-.22-.07-.22-.24v-8c0-.15.07-.23.22-.23Z" style="fill:#0d3a5c;stroke:#fff;stroke-miterlimit:10;stroke-width:0.75px"/><path d="M64.79,4.6c.15,0,.24.06.24.22V7h1.38c.17,0,.26.07.26.22v1.2c0,.15-.09.23-.26.23H65v4.09c0,.65.23.77.89.77h.61c.18,0,.26.06.26.22V15a.25.25,0,0,1-.22.28h0a6.12,6.12,0,0,1-1.28.14c-1.29,0-2.46-.05-2.46-1.94V8.62h-.9c-.17,0-.24-.08-.24-.23V7.19c0-.15.07-.22.24-.22h.88V5.3c0-.15.06-.21.21-.24Z" style="fill:#0d3a5c;stroke:#fff;stroke-miterlimit:10;stroke-width:0.75px"/><path d="M71,3.71a.21.21,0,0,1,.23.19h0V7c.53,0,1.06-.07,1.59-.07,2.86,0,3.61.54,3.61,3.6v4.63c0,.17-.07.24-.22.24H74.4c-.15,0-.21-.07-.21-.24V11c0-2.15-.24-2.25-1.62-2.25H71.22v6.31c0,.17-.07.24-.22.24H69.2c-.15,0-.21-.07-.21-.24V4c0-.15.07-.24.22-.24Z" style="fill:#0d3a5c;stroke:#fff;stroke-miterlimit:10;stroke-width:0.75px"/></svg>