<?xml version="1.0" encoding="UTF-8" standalone="no"?>
<!DOCTYPE svg PUBLIC "-//W3C//DTD SVG 1.1//EN" "http://www.w3.org/Graphics/SVG/1.1/DTD/svg11.dtd">
<svg width="148.18" height="53" viewBox="0 0 148.18 53" version="1.1" xmlns="http://www.w3.org/2000/svg" xmlns:xlink="http://www.w3.org/1999/xlink" xml:space="preserve" xmlns:serif="http://www.serif.com/" style="fill-rule:evenodd;clip-rule:evenodd;stroke-miterlimit:10;">
    <path d="M138.66,21.66C134.01,21.66 130.66,22.59 130.66,26.66L130.66,27.4C130.477,29.86 132.026,32.142 134.38,32.88L139.3,34.74C140.97,35.37 141.42,35.97 141.42,36.86L141.42,37.23C141.42,38.54 140.64,38.83 138.14,38.83L130.92,38.83C130.47,38.83 130.32,39.02 130.32,39.43L130.32,41.74C130.32,42.07 130.44,42.26 130.88,42.3C132.11,42.41 134.88,42.63 138.14,42.63C143.02,42.63 145.85,41.63 145.85,37.42L145.85,36.94C145.85,34.63 145.33,32.73 142.05,31.5L137.17,29.71C135.61,29.12 135.17,28.41 135.17,27.52L135.17,27.07C135.17,25.91 136.06,25.43 137.62,25.43L144.47,25.43C144.88,25.43 145.07,25.24 145.07,24.87L145.07,22.67C145.07,22.33 144.88,22.14 144.51,22.07C142.587,21.784 140.644,21.647 138.7,21.66M123.49,21.85C123.465,21.846 123.44,21.844 123.414,21.844C123.173,21.844 122.966,22.022 122.93,22.26C122.92,22.31 122.92,22.36 122.93,22.41L122.93,41.88C122.895,42.151 123.089,42.404 123.36,42.44C123.403,42.45 123.447,42.45 123.49,42.44L126.88,42.44C127.151,42.475 127.404,42.281 127.44,42.01C127.45,41.967 127.45,41.923 127.44,41.88L127.44,22.41C127.444,22.385 127.446,22.36 127.446,22.334C127.446,22.093 127.268,21.886 127.03,21.85C126.98,21.84 126.93,21.84 126.88,21.85L123.49,21.85ZM125.2,13.4C125.078,13.381 124.956,13.372 124.832,13.372C123.657,13.372 122.648,14.238 122.47,15.4C122.44,15.602 122.44,15.808 122.47,16.01C122.556,17.427 123.746,18.546 125.165,18.546C126.584,18.546 127.774,17.427 127.86,16.01C127.867,15.937 127.87,15.863 127.87,15.79C127.87,14.578 126.937,13.553 125.73,13.44C125.548,13.41 125.362,13.41 125.18,13.44M114.58,25.61L114.58,38.45C113.234,38.622 111.877,38.698 110.52,38.68C106.35,38.68 105.79,37.45 105.79,32.12C105.79,27.02 106.2,25.57 110.3,25.57L114.58,25.61ZM110.45,21.7C102.96,21.7 101.25,23.82 101.25,32.01C101.25,40.43 102.93,42.66 109.81,42.66C111.406,42.68 113.002,42.57 114.58,42.33L114.58,42.51C114.58,45.45 113.69,46.35 109.96,46.35L104.16,46.35C103.78,46.35 103.6,46.5 103.6,46.91L103.6,49.1C103.583,49.406 103.815,49.674 104.12,49.7C106.141,49.981 108.18,50.119 110.22,50.11C117.78,50.11 119.05,47.76 119.09,41.28L119.09,23.08C119.091,23.063 119.092,23.046 119.092,23.028C119.092,22.662 118.805,22.355 118.44,22.33L118.38,22.33C115.763,21.862 113.108,21.638 110.45,21.66" style="fill:rgb(47,160,218);fill-rule:nonzero;stroke:white;stroke-width:0.75px;"/>
    <path d="M80,11.11C79.55,11.11 79.34,11.19 79.26,11.52L73.82,30.44C73.659,30.888 73.562,31.355 73.53,31.83L73.53,34C73.53,34.45 73.74,34.61 74.15,34.61L88,34.61L88,41.78C87.997,41.805 87.995,41.83 87.995,41.855C87.995,42.129 88.199,42.363 88.47,42.4L92.67,42.4C92.699,42.405 92.728,42.407 92.757,42.407C93.016,42.407 93.239,42.216 93.28,41.96C93.29,41.907 93.29,41.853 93.28,41.8L93.28,34.65L98.16,34.65C98.61,34.65 98.81,34.49 98.81,34.04L98.81,30.64C98.81,30.27 98.61,30.07 98.16,30.07L93.23,30.07L93.23,20.61C93.23,20.07 92.95,19.99 92.5,20.16L88.44,21.59C88.125,21.691 87.92,22 87.95,22.33L87.95,30.07L79.23,30.07L84.47,11.84C84.59,11.39 84.47,11.11 84.02,11.11L80,11.11Z" style="fill:rgb(61,60,59);fill-rule:nonzero;stroke:white;stroke-width:0.75px;"/>
    <path d="M62,21.66C59.207,21.6 56.415,21.801 53.66,22.26C53.32,22.33 53.14,22.37 53.14,22.85L53.14,41.85C53.14,42.22 53.29,42.41 53.66,42.41L57,42.41C57.025,42.414 57.05,42.416 57.076,42.416C57.317,42.416 57.524,42.238 57.56,42C57.57,41.95 57.57,41.9 57.56,41.85L57.56,25.57L61.84,25.57C65.34,25.57 66.2,25.79 66.2,31.3L66.2,41.88C66.165,42.151 66.359,42.404 66.63,42.44C66.673,42.45 66.717,42.45 66.76,42.44L70.11,42.44C70.135,42.444 70.16,42.445 70.185,42.445C70.448,42.445 70.673,42.25 70.71,41.99L70.71,30.48C70.71,22.7 68.81,21.66 61.92,21.66M40.72,25.57C44.72,25.57 45.27,26.87 45.27,32.16C45.27,37.45 44.71,38.71 40.72,38.71C36.73,38.71 36.18,37.41 36.18,32.16C36.18,26.91 36.74,25.57 40.72,25.57M40.72,21.66C33.28,21.66 31.72,23.75 31.72,32.16C31.72,40.57 33.32,42.62 40.72,42.62C48.12,42.62 49.81,40.54 49.81,32.16C49.81,23.78 48.17,21.66 40.72,21.66M23,21.66C15.44,21.66 14,23.75 14,32.12C14,40.49 15.49,42.62 23,42.62C24.968,42.638 26.934,42.501 28.88,42.21C29.192,42.195 29.441,41.933 29.441,41.621C29.441,41.61 29.441,41.6 29.44,41.59L29.44,39.27C29.44,38.9 29.25,38.71 28.84,38.71L23,38.71C19,38.71 18.49,37.37 18.49,32.12C18.49,26.87 19,25.57 23,25.57L28.84,25.57C29.25,25.57 29.44,25.38 29.44,25.01L29.44,22.74C29.481,22.414 29.246,22.111 28.92,22.07C26.96,21.779 24.981,21.642 23,21.66" style="fill:rgb(47,160,218);fill-rule:nonzero;stroke:white;stroke-width:0.75px;"/>
    <path d="M6.2,3.71C6.37,3.71 6.43,3.79 6.43,3.95L6.43,7C7.04,6.94 7.66,6.91 8.27,6.91C11,6.91 11.72,7.91 11.72,11.2C11.72,14.49 11,15.4 7.82,15.4C6.714,15.394 5.61,15.297 4.52,15.11C4.345,15.095 4.209,14.947 4.209,14.771C4.209,14.761 4.209,14.75 4.21,14.74L4.21,4C4.21,3.84 4.27,3.76 4.43,3.76L6.2,3.71ZM6.43,8.78L6.43,13.37C6.907,13.441 7.388,13.478 7.87,13.48C9.38,13.48 9.49,12.88 9.49,11.12C9.49,9.19 9.29,8.78 7.78,8.78L6.43,8.78Z" style="fill:rgb(61,60,59);fill-rule:nonzero;stroke:white;stroke-width:0.75px;"/>
    <path d="M21.41,6.92C21.56,6.92 21.62,7 21.62,7.15L21.62,14.89C21.62,15.08 21.56,15.11 21.41,15.14C20.22,15.332 19.015,15.419 17.81,15.4C14.93,15.4 14.19,14.86 14.19,11.78L14.19,7.15C14.189,7.143 14.189,7.136 14.189,7.129C14.189,7.021 14.272,6.93 14.38,6.92L16.2,6.92C16.35,6.92 16.41,7 16.41,7.15L16.41,11.21C16.41,13.37 16.65,13.48 18.03,13.48L19.38,13.48L19.38,7.15C19.379,7.143 19.379,7.136 19.379,7.129C19.379,7.021 19.462,6.93 19.57,6.92L21.41,6.92Z" style="fill:rgb(61,60,59);fill-rule:nonzero;stroke:white;stroke-width:0.75px;"/>
    <path d="M26.82,4.58C26.854,5.208 26.377,5.757 25.75,5.81L25.53,5.81C25.477,5.817 25.424,5.821 25.37,5.821C24.79,5.821 24.295,5.386 24.22,4.81C24.21,4.734 24.21,4.656 24.22,4.58C24.22,3.82 24.7,3.38 25.54,3.38C26.165,3.304 26.742,3.755 26.82,4.38L26.82,4.6L26.82,4.58ZM26.4,6.92C26.55,6.92 26.62,7 26.62,7.15L26.62,15.08C26.62,15.25 26.55,15.32 26.4,15.32L24.63,15.32C24.48,15.32 24.4,15.25 24.4,15.08L24.4,7.15C24.399,7.143 24.399,7.136 24.399,7.129C24.399,7.021 24.482,6.93 24.59,6.92L26.4,6.92Z" style="fill:rgb(61,60,59);fill-rule:nonzero;stroke:white;stroke-width:0.75px;"/>
    <path d="M31.42,3.71C31.57,3.71 31.64,3.79 31.64,3.94L31.64,15.08C31.64,15.25 31.57,15.32 31.42,15.32L29.65,15.32C29.5,15.32 29.42,15.25 29.42,15.08L29.42,3.94C29.419,3.933 29.419,3.926 29.419,3.919C29.419,3.811 29.502,3.72 29.61,3.71L31.42,3.71Z" style="fill:rgb(61,60,59);fill-rule:nonzero;stroke:white;stroke-width:0.75px;"/>
    <path d="M37,4.6C37.15,4.6 37.24,4.66 37.24,4.82L37.24,7L38.62,7C38.78,7 38.87,7.07 38.87,7.22L38.87,8.42C38.87,8.57 38.78,8.65 38.62,8.65L37.19,8.65L37.19,12.74C37.19,13.39 37.41,13.51 38.07,13.51L38.69,13.51C38.87,13.51 38.94,13.57 38.94,13.73L38.94,15C38.94,15.18 38.87,15.25 38.7,15.28C38.283,15.372 37.857,15.419 37.43,15.42C36.14,15.42 34.97,15.37 34.97,13.48L34.97,8.62L34.08,8.62C34.069,8.622 34.059,8.622 34.048,8.622C33.943,8.622 33.854,8.544 33.84,8.44L33.84,7.19C33.84,7.04 33.92,6.97 34.08,6.97L35,6.97L35,5.3C35,5.15 35.06,5.09 35.21,5.06L37,4.6Z" style="fill:rgb(61,60,59);fill-rule:nonzero;stroke:white;stroke-width:0.75px;"/>
    <path d="M54.84,6.92C54.99,6.92 55.04,6.92 55.02,7.13L53.73,13.9C53.48,15.23 53.06,15.4 51.73,15.4C50,15.4 49.82,15.23 49.52,13.9L48.79,10.57L48,13.9C47.72,15.23 47.52,15.4 45.81,15.4C44.42,15.4 44.01,15.23 43.74,13.9L42.47,7.13C42.47,6.97 42.47,6.92 42.65,6.92L44.55,6.92C44.64,6.92 44.69,6.92 44.72,7.13L45.72,13.25C45.78,13.51 45.83,13.54 45.96,13.54C46.09,13.54 46.16,13.54 46.2,13.25L47.6,7.39C47.6,7.22 47.72,7.18 47.84,7.18L49.59,7.18C49.7,7.18 49.79,7.18 49.82,7.39L51.21,13.25C51.27,13.51 51.3,13.54 51.45,13.54C51.6,13.54 51.65,13.54 51.71,13.25L52.71,7.13C52.71,6.97 52.77,6.92 52.88,6.92L54.84,6.92Z" style="fill:rgb(61,60,59);fill-rule:nonzero;stroke:white;stroke-width:0.75px;"/>
    <path d="M59.68,4.58C59.733,5.189 59.287,5.737 58.68,5.81L58.44,5.81C58.387,5.817 58.334,5.821 58.28,5.821C57.7,5.821 57.205,5.386 57.13,4.81C57.12,4.734 57.12,4.656 57.13,4.58C57.13,3.82 57.61,3.38 58.45,3.38C58.502,3.373 58.554,3.369 58.606,3.369C59.181,3.369 59.669,3.808 59.73,4.38C59.719,4.448 59.703,4.515 59.68,4.58ZM59.26,6.92C59.267,6.919 59.274,6.919 59.281,6.919C59.389,6.919 59.48,7.002 59.49,7.11L59.49,15.11C59.49,15.28 59.41,15.35 59.26,15.35L57.49,15.35C57.34,15.35 57.27,15.28 57.27,15.11L57.27,7.11C57.27,6.96 57.34,6.88 57.49,6.88L59.26,6.92Z" style="fill:rgb(61,60,59);fill-rule:nonzero;stroke:white;stroke-width:0.75px;"/>
    <path d="M64.79,4.6C64.94,4.6 65.03,4.66 65.03,4.82L65.03,7L66.41,7C66.58,7 66.67,7.07 66.67,7.22L66.67,8.42C66.67,8.57 66.58,8.65 66.41,8.65L65,8.65L65,12.74C65,13.39 65.23,13.51 65.89,13.51L66.5,13.51C66.68,13.51 66.76,13.57 66.76,13.73L66.76,15C66.761,15.01 66.762,15.021 66.762,15.032C66.762,15.158 66.666,15.266 66.54,15.28C66.119,15.372 65.69,15.418 65.26,15.42C63.97,15.42 62.8,15.37 62.8,13.48L62.8,8.62L61.9,8.62C61.73,8.62 61.66,8.54 61.66,8.39L61.66,7.19C61.66,7.04 61.73,6.97 61.9,6.97L62.78,6.97L62.78,5.3C62.78,5.15 62.84,5.09 62.99,5.06L64.79,4.6Z" style="fill:rgb(61,60,59);fill-rule:nonzero;stroke:white;stroke-width:0.75px;"/>
    <path d="M71,3.71C71.007,3.709 71.014,3.709 71.021,3.709C71.129,3.709 71.22,3.792 71.23,3.9L71.23,7C71.76,7 72.29,6.93 72.82,6.93C75.68,6.93 76.43,7.47 76.43,10.53L76.43,15.16C76.43,15.33 76.36,15.4 76.21,15.4L74.4,15.4C74.25,15.4 74.19,15.33 74.19,15.16L74.19,11C74.19,8.85 73.95,8.75 72.57,8.75L71.22,8.75L71.22,15.06C71.22,15.23 71.15,15.3 71,15.3L69.2,15.3C69.05,15.3 68.99,15.23 68.99,15.06L68.99,4C68.99,3.85 69.06,3.76 69.21,3.76L71,3.71Z" style="fill:rgb(61,60,59);fill-rule:nonzero;stroke:white;stroke-width:0.75px;"/>
</svg>
