<svg id="Ebene_1" data-name="Ebene 1" xmlns="http://www.w3.org/2000/svg" width="16" height="16" viewBox="0 0 16 16"><defs><style>.cls-1,.cls-5{fill:#0098d6;}.cls-1{opacity:0.25;}.cls-2{fill:none;stroke-linecap:round;}.cls-2,.cls-5{stroke:#103a5d;stroke-linejoin:round;}.cls-3{fill:#6e9153;stroke:#4a7628;}.cls-3,.cls-4{stroke-miterlimit:10;}.cls-3,.cls-4,.cls-5{stroke-width:0.25px;}.cls-4{fill:#4a7628;stroke:#6e9153;}</style></defs><title>basiskarte</title><polygon class="cls-1" points="1.74 1.79 9.44 1.79 11.21 0.86 12.84 0.81 14.34 1.79 14.49 4.37 14.34 14.42 12.63 13.45 10.98 13.7 9.82 14.29 9.6 14.45 6.75 14.45 1.46 14.45 1.74 1.79"/><polyline class="cls-2" points="8.26 1.79 1.47 1.79 1.47 14.45 8.26 14.45"/><path class="cls-2" d="M9.65,1.75c-.48.38,2.34-2.51,4.69,0V14.41a3.73,3.73,0,0,0-4.69,0"/><path class="cls-3" d="M10,2.75s2.34-1.46,3.78,0V7.12s-2.81-.42-3-1.44.3-1-.5-1.7S10,2.75,10,2.75Z"/><path class="cls-4" d="M6.58,3.73s-2.21-1-3.09-.21-.68,1.35-1,2a3.45,3.45,0,0,0-.15,2.56c.32.95,1,1.41,1.28,2.45s1.11,1.25,1.75.66S6.5,9.12,7.45,9.35s1.41-.83,1.47-1.19A3,3,0,0,0,8.73,6C8.22,4.45,7.77,3.59,6.58,3.73Z"/><path class="cls-5" d="M11.19,9.14a2.1,2.1,0,0,0-1.6.79,3.25,3.25,0,0,0-.43,2.84c.16.08.43.68.43.68A2.9,2.9,0,0,1,12,12.25c1.78-.15,1.79-.53,1.79-.53V8.87A4.26,4.26,0,0,0,11.19,9.14Z"/></svg>