<svg id="Ebene_1" data-name="Ebene 1" xmlns="http://www.w3.org/2000/svg" width="16" height="16" viewBox="0 0 16 16"><defs><style>.cls-1{fill:#b5ca97;}.cls-2{fill:none;stroke:#103a5d;stroke-linecap:round;stroke-linejoin:round;}.cls-3{fill:#4a7628;}.cls-4{fill:#0098d6;}</style></defs><title>Basiskarte_2_16</title><polygon class="cls-1" points="1.29 1.67 9.7 1.68 11.63 0.66 13.42 0.6 15.05 1.68 15.22 4.49 15.05 15.47 13.19 14.41 11.38 14.68 10.11 15.32 9.87 15.5 6.76 15.5 0.99 15.5 1.29 1.67"/><polyline class="cls-2" points="8.41 1.67 1 1.67 1 15.5 8.41 15.5"/><path class="cls-2" d="M9.93,1.63c-.52.41,2.55-2.74,5.12,0V15.46a4.06,4.06,0,0,0-5.12,0"/><path class="cls-3" d="M10.28,2.72s2.55-1.59,4.12,0V7.49S11.34,7,11.15,5.92s.33-1.09-.54-1.86S10.28,2.72,10.28,2.72Z"/><path class="cls-3" d="M6.58,3.79s-2.41-1-3.37-.23S2.46,5,2.11,5.75A3.78,3.78,0,0,0,2,8.55c.35,1,1.1,1.53,1.4,2.67s1.2,1.36,1.9.72,1.24-2.26,2.27-2S9.06,9,9.13,8.63a3.28,3.28,0,0,0-.21-2.41C8.36,4.58,7.87,3.63,6.58,3.79Z"/><path class="cls-4" d="M11.61,9.7a2.27,2.27,0,0,0-1.74.86,3.54,3.54,0,0,0-.47,3.11c.17.09.47.73.47.73a3.18,3.18,0,0,1,2.58-1.31c1.94-.16,2-.58,2-.58V9.4A4.64,4.64,0,0,0,11.61,9.7Z"/></svg>