<svg id="Ebene_1" data-name="Ebene 1" xmlns="http://www.w3.org/2000/svg" width="16" height="16" viewBox="0 0 16 16"><defs><style>.cls-1{fill:#103a5d;}</style></defs><title>c4gforum</title><path class="cls-1" d="M13.63,12.08A4.26,4.26,0,0,0,16,8.51a4.28,4.28,0,0,0-2.48-3.62,4.69,4.69,0,0,1,.2,1.35,5.13,5.13,0,0,1-2.3,4.14,8.7,8.7,0,0,1-5.1,1.54l-.78,0a7.79,7.79,0,0,0,4.2,1.17,9,9,0,0,0,1.56-.14,7.61,7.61,0,0,0,2.47,1.14,6.92,6.92,0,0,0,.77.14.3.3,0,0,0,.31-.26c0-.17-.08-.27-.18-.39a4.81,4.81,0,0,1-1-1.48M6.32,1.68c-3.45,0-6.26,2-6.26,4.57A4.26,4.26,0,0,0,2.43,9.8a4.77,4.77,0,0,1-1,1.48c-.09.11-.21.22-.17.39a.31.31,0,0,0,.28.26h0a6.75,6.75,0,0,0,.76-.14,7.82,7.82,0,0,0,2.47-1.14,9.14,9.14,0,0,0,1.56.14c3.46,0,6.26-2,6.26-4.56S9.78,1.68,6.32,1.68m0,1.14c2.78,0,5.12,1.57,5.12,3.43S9.1,9.67,6.32,9.67A7.73,7.73,0,0,1,5,9.53L4.5,9.44l-.39.28-.56.35.31-.75L3,8.82A3.13,3.13,0,0,1,1.21,6.24c0-1.85,2.34-3.42,5.12-3.42"/></svg>