<svg id="Ebene_1" data-name="Ebene 1" xmlns="http://www.w3.org/2000/svg" width="16" height="16" viewBox="0 0 16 16"><defs><style>.cls-1,.cls-3{fill:#103a5d;}.cls-1,.cls-6{stroke:#103a5d;}.cls-1,.cls-4,.cls-6,.cls-7{stroke-miterlimit:10;}.cls-2,.cls-6{fill:#0098d6;}.cls-4{fill:#fee3b8;stroke:#4d4d4d;}.cls-4,.cls-7{stroke-width:0.25px;}.cls-5{fill:#4d4d4d;}.cls-7{fill:#fff;stroke:#fff;opacity:0.64;}</style></defs><title>data_verzeichnis_1</title><path class="cls-1" d="M8.14,4.67,6.59,5.76a.64.64,0,0,1-.37.13H.88V3.45a.88.88,0,0,1,.76-1H6.22a.63.63,0,0,1,.37.12l1.55,1.1A.62.62,0,0,1,8.14,4.67Z"/><rect class="cls-2" x="0.71" y="4.16" width="15.01" height="10.23"/><path class="cls-3" d="M15.22,4.66V13.9h-14V4.66h14m.62-1H.59A.38.38,0,0,0,.21,4V14.52a.38.38,0,0,0,.38.38H15.84a.38.38,0,0,0,.38-.38V4a.38.38,0,0,0-.38-.38Z"/><rect class="cls-4" x="3" y="1.04" width="12" height="10.96" rx="1.01"/><rect class="cls-5" x="4.38" y="3" width="9.23" height="0.78"/><rect class="cls-5" x="4.38" y="5.34" width="9.23" height="0.78"/><path class="cls-6" d="M15.68,6.35v7.8a.38.38,0,0,1-.38.38H1.09a.37.37,0,0,1-.37-.38v-6H6.38l3-2h6.24A.31.31,0,0,1,15.68,6.35Z"/><rect class="cls-7" x="-3" y="-1" width="23" height="18"/></svg>