<svg id="Ebene_1" data-name="Ebene 1" xmlns="http://www.w3.org/2000/svg" width="16" height="16" viewBox="0 0 16 16"><defs><style>.cls-1{fill:none;stroke:#103a5d;stroke-miterlimit:10;stroke-width:2px;}.cls-2{fill:#0098d6;}</style></defs><title>editor_config_3</title><path class="cls-1" d="M13,8.58v5.2a.82.82,0,0,1-.82.81H1.79A.81.81,0,0,1,1,13.78V3.39a.81.81,0,0,1,.81-.81H8"/><path class="cls-2" d="M10.12,7.91a3.07,3.07,0,0,0-.47-1.15A3.1,3.1,0,0,0,8.9,6a2.87,2.87,0,0,0-1.14-.47,2.83,2.83,0,0,0-1.06,0A2.94,2.94,0,0,0,4.33,7.91a3.07,3.07,0,0,0,0,.53,3,3,0,0,0,0,.52,2.9,2.9,0,0,0,.47,1.16,3.51,3.51,0,0,0,.75.74,2.92,2.92,0,0,0,1.15.47,2.83,2.83,0,0,0,1.06,0,2.87,2.87,0,0,0,1.14-.47,3.51,3.51,0,0,0,.75-.74A2.9,2.9,0,0,0,10.12,9a3,3,0,0,0,.05-.52A3.07,3.07,0,0,0,10.12,7.91ZM8.77,9.24A1.56,1.56,0,0,1,8,10a.77.77,0,0,1-.28.12,1.61,1.61,0,0,1-1.06,0A.77.77,0,0,1,6.42,10a1.58,1.58,0,0,1-.74-.75A.77.77,0,0,1,5.56,9a1.5,1.5,0,0,1-.09-.52,1.6,1.6,0,0,1,.09-.53.77.77,0,0,1,.12-.28,1.66,1.66,0,0,1,.74-.74.77.77,0,0,1,.28-.12,1.61,1.61,0,0,1,1.06,0A.8.8,0,0,1,8,6.89a1.5,1.5,0,0,1,.74.75.8.8,0,0,1,.12.27A1.6,1.6,0,0,1,9,8.44,1.5,1.5,0,0,1,8.89,9,.77.77,0,0,1,8.77,9.24Z"/><path class="cls-2" d="M7.76,10.11v2.82H6.7V10.11a1.61,1.61,0,0,0,1.06,0Z"/><path class="cls-2" d="M7.76,3.93V6.77a1.61,1.61,0,0,0-1.06,0V3.93Z"/><path class="cls-2" d="M5.47,8.44A1.5,1.5,0,0,0,5.56,9H2.73V7.91H5.56A1.6,1.6,0,0,0,5.47,8.44Z"/><path class="cls-2" d="M11.73,7.91V9H8.89A1.5,1.5,0,0,0,9,8.44a1.6,1.6,0,0,0-.09-.53Z"/><path class="cls-2" d="M6.42,10l-2,2-.74-.75,2-2A1.58,1.58,0,0,0,6.42,10Z"/><path class="cls-2" d="M10.78,5.63l-2,2A1.5,1.5,0,0,0,8,6.89l2-2Z"/><path class="cls-2" d="M6.42,6.89a1.66,1.66,0,0,0-.74.74l-2-2,.74-.74Z"/><path class="cls-2" d="M10.78,11.25,10,12,8.9,10.86,8,10a1.56,1.56,0,0,0,.73-.75l.88.88Z"/></svg>