<svg id="Ebene_1" data-name="Ebene 1" xmlns="http://www.w3.org/2000/svg" width="16" height="16" viewBox="0 0 16 16"><defs><style>.cls-1,.cls-3{fill:#103a5d;}.cls-1,.cls-8{stroke:#103a5d;}.cls-1,.cls-4,.cls-5,.cls-6,.cls-8{stroke-miterlimit:10;}.cls-2,.cls-8{fill:#0098d6;}.cls-4{fill:gray;}.cls-4,.cls-5,.cls-6{stroke:#1a1a1a;stroke-width:0.25px;}.cls-5{fill:#e6e6e6;}.cls-6{fill:#f2f2f2;}.cls-7{fill:#fc0;}</style></defs><title>aus_datenverzeichnis</title><path class="cls-1" d="M8.13,5,6.63,6.09a.63.63,0,0,1-.37.12H1.07V3.84a.86.86,0,0,1,.74-.94H6.26A.71.71,0,0,1,6.63,3l1.5,1.07A.61.61,0,0,1,8.13,5Z"/><rect class="cls-2" x="0.91" y="4.54" width="14.59" height="9.94"/><path class="cls-3" d="M15,5V14H1.41V5H15m.62-1H.79a.38.38,0,0,0-.38.38V14.6A.38.38,0,0,0,.79,15H15.62A.38.38,0,0,0,16,14.6V4.42A.38.38,0,0,0,15.62,4Z"/><path class="cls-4" d="M15,3.56v6.7a.6.6,0,0,1-.6.6H5.6a.6.6,0,0,1-.6-.6V.74a.6.6,0,0,1,.6-.6h6.7a.6.6,0,0,1,.48.24l2.1,2.82A.58.58,0,0,1,15,3.56Z"/><path class="cls-5" d="M6.43.14H12a0,0,0,0,1,0,0v2a1,1,0,0,1-1,1H7.44a1,1,0,0,1-1-1v-2A0,0,0,0,1,6.43.14Z"/><path class="cls-6" d="M7.47,5.86h5.06a1,1,0,0,1,1,1v4a0,0,0,0,1,0,0H6.43a0,0,0,0,1,0,0v-4A1,1,0,0,1,7.47,5.86Z"/><rect class="cls-7" x="7.29" y="6.14" width="1.29" height="1"/><rect class="cls-7" x="9.43" y="6.14" width="1.29" height="1"/><rect class="cls-7" x="11.57" y="6.14" width="1.29" height="1"/><rect class="cls-7" x="7.29" y="7.57" width="1.29" height="1"/><rect class="cls-7" x="9.43" y="7.57" width="1.29" height="1"/><rect class="cls-7" x="11.57" y="7.57" width="1.29" height="1"/><rect x="9.99" y="1.14" width="1.01" height="1" transform="translate(20.99 3.29) rotate(180)"/><path class="cls-8" d="M15.47,7.66v7.6a.37.37,0,0,1-.37.37H1.27a.37.37,0,0,1-.36-.37V9.43H6.42L9.34,7.48h6.08A.35.35,0,0,1,15.47,7.66Z"/></svg>