<svg id="Ebene_1" data-name="Ebene 1" xmlns="http://www.w3.org/2000/svg" width="16" height="16" viewBox="0 0 16 16"><defs><style>.cls-1{fill:#b5ca97;}.cls-1,.cls-3,.cls-4{opacity:0.81;}.cls-2{fill:#103a5d;}.cls-3{fill:#4a7628;}.cls-4{fill:#0098d6;}.cls-5{fill:#bf2c38;}</style></defs><title>kartenstruktur_16</title><polygon class="cls-1" points="1.45 1.5 9.69 1.5 11.58 0.51 13.33 0.45 14.94 1.5 15.09 4.26 14.94 15.01 13.11 13.97 11.34 14.24 10.1 14.87 9.86 15.04 6.82 15.04 1.16 15.04 1.45 1.5"/><path class="cls-2" d="M8.55,15.44H1.29a.38.38,0,0,1-.39-.39V1.51a.38.38,0,0,1,.39-.39H8.55a.39.39,0,1,1,0,.78H1.69V14.66H8.55a.39.39,0,0,1,0,.78Z"/><path class="cls-2" d="M10,15.41a.42.42,0,0,1-.31-.15.41.41,0,0,1,.06-.56,4.15,4.15,0,0,1,3.82-.84,5.29,5.29,0,0,1,1.05.43V1.63a2.75,2.75,0,0,0-2-.87h0a3.38,3.38,0,0,0-1.61.45,4.32,4.32,0,0,0-.69.45.29.29,0,0,1-.1.12l-.07.06a.41.41,0,0,1-.53-.08.4.4,0,0,1,0-.55l.1-.1a5,5,0,0,1,2.08-1A3.5,3.5,0,0,1,15.34,1.2a.4.4,0,0,1,.11.27V15a.41.41,0,0,1-.23.36.4.4,0,0,1-.42-.06,4.27,4.27,0,0,0-1.42-.7,3.37,3.37,0,0,0-3.09.71A.4.4,0,0,1,10,15.41Z"/><path class="cls-3" d="M10.26,2.53s2.5-1.56,4,0V7.2s-3-.45-3.19-1.54.33-1.06-.53-1.82S10.26,2.53,10.26,2.53Z"/><path class="cls-3" d="M6.64,3.58s-2.36-1-3.31-.22S2.6,4.79,2.26,5.49A3.67,3.67,0,0,0,2.1,8.23c.34,1,1.08,1.51,1.37,2.62s1.18,1.34,1.87.7,1.21-2.2,2.22-2S9.07,8.7,9.14,8.32A3.27,3.27,0,0,0,8.93,6C8.38,4.35,7.9,3.42,6.64,3.58Z"/><path class="cls-4" d="M11.57,9.36a2.27,2.27,0,0,0-1.71.84,3.48,3.48,0,0,0-.47,3.05c.17.08.47.72.47.72a3.13,3.13,0,0,1,2.53-1.29c1.9-.15,1.92-.56,1.92-.56v-3A4.57,4.57,0,0,0,11.57,9.36Z"/><rect class="cls-5" x="8.22" y="2.67" width="5.64" height="1.41"/><rect class="cls-5" x="8.22" y="7.07" width="5.64" height="1.41"/><rect class="cls-5" x="8.22" y="11.47" width="5.64" height="1.41"/><rect class="cls-5" x="2.56" y="2.68" width="3.61" height="10.17"/></svg>