<svg id="Ebene_1" data-name="Ebene 1" xmlns="http://www.w3.org/2000/svg" width="16" height="16" viewBox="0 0 16 16"><defs><style>.cls-1{fill:#b5ca97;}.cls-1,.cls-2,.cls-3,.cls-4{opacity:0.69;}.cls-2{fill:none;stroke:#103a5d;stroke-linecap:round;stroke-linejoin:round;stroke-width:0.75px;}.cls-3{fill:#4a7628;}.cls-4{fill:#0098d6;}.cls-5{fill:#c87f3f;stroke-width:0.1px;}.cls-10,.cls-11,.cls-5,.cls-6,.cls-7,.cls-8,.cls-9{stroke:#000;stroke-miterlimit:10;}.cls-6{fill:#e31f24;}.cls-10,.cls-11,.cls-6,.cls-7,.cls-8,.cls-9{stroke-width:0.25px;}.cls-7{fill:#f39414;}.cls-8{fill:#ffed00;}.cls-9{fill:#52f25d;}.cls-10{fill:#00a9d6;}.cls-11{fill:#3a3185;}</style></defs><title>kartenlayout_16</title><polygon class="cls-1" points="1.97 1.91 10.04 1.91 11.89 0.93 13.61 0.88 15.18 1.91 15.33 4.61 15.18 15.15 13.39 14.13 11.66 14.39 10.44 15.01 10.21 15.18 7.22 15.18 1.68 15.18 1.97 1.91"/><polyline class="cls-2" points="8.8 1.91 1.69 1.91 1.69 15.18 8.8 15.18"/><path class="cls-2" d="M10.26,1.87c-.5.4,2.45-2.63,4.91,0V15.14a3.9,3.9,0,0,0-4.91,0"/><path class="cls-3" d="M10.59,2.91s2.45-1.53,4,0v4.6S11.62,7.06,11.43,6s.32-1-.52-1.78S10.59,2.91,10.59,2.91Z"/><path class="cls-3" d="M7.05,3.94s-2.32-1-3.24-.21-.72,1.4-1.06,2.09A3.69,3.69,0,0,0,2.6,8.51c.34,1,1.06,1.47,1.34,2.56s1.16,1.31,1.83.69S7,9.6,8,9.83,9.43,9,9.5,8.59a3.2,3.2,0,0,0-.21-2.31C8.76,4.7,8.29,3.79,7.05,3.94Z"/><path class="cls-4" d="M11.88,9.61a2.22,2.22,0,0,0-1.68.83,3.37,3.37,0,0,0-.45,3c.17.09.45.71.45.71a3.05,3.05,0,0,1,2.48-1.26c1.87-.15,1.88-.56,1.88-.56v-3A4.43,4.43,0,0,0,11.88,9.61Z"/><path class="cls-5" d="M15.89,5.51a4.43,4.43,0,0,1-3.64,5.34,4.37,4.37,0,0,1-1.77-.09h0a4.43,4.43,0,0,1-7.24,3.9h0A7.81,7.81,0,0,1,2,13,8,8,0,0,1,14,2.76,8.26,8.26,0,0,1,15.24,4h0A4.27,4.27,0,0,1,15.89,5.51Z"/><circle class="cls-6" cx="4.87" cy="12.96" r="1.48"/><circle class="cls-7" cx="3.1" cy="8.9" r="1.48"/><circle class="cls-8" cx="4.59" cy="5.14" r="1.48"/><circle class="cls-9" cx="8.21" cy="3" r="1.48"/><circle class="cls-10" cx="12.01" cy="3.94" r="1.48"/><circle class="cls-11" cx="13.86" cy="7.23" r="1.48"/></svg>