<svg id="Ebene_1" data-name="Ebene 1" xmlns="http://www.w3.org/2000/svg" xmlns:xlink="http://www.w3.org/1999/xlink" width="198.76" height="40" viewBox="0 0 198.76 40"><defs><style>.cls-1,.cls-5{fill:none;}.cls-2{fill:#103a5d;}.cls-3{fill:#6b7691;}.cls-4{clip-path:url(#clip-path);}.cls-5{stroke:#103a5d;stroke-width:1.05px;}</style><clipPath id="clip-path"><rect class="cls-1" x="142.11" y="1.09" width="48.64" height="37.79"/></clipPath></defs><title>logo_con4gis-maps</title><path class="cls-2" d="M124.94,11.33c-4.52,0-7.77.91-7.77,4.85v.72a5.17,5.17,0,0,0,3.61,5.31L125.55,24c1.63.62,2.06,1.19,2.06,2.06v.36c0,1.27-.76,1.56-3.18,1.56h-7c-.43,0-.58.18-.58.58v2.24c0,.32.11.5.54.54,1.2.11,3.91.32,7.05.32,4.74,0,7.48-.94,7.48-5.06v-.47c0-2.24-.5-4.08-3.68-5.27l-4.74-1.74c-1.52-.58-2-1.26-2-2.13v-.43c0-1.13.87-1.6,2.39-1.6h6.65c.4,0,.58-.18.58-.54V12.31c0-.33-.18-.51-.54-.58a37.85,37.85,0,0,0-5.64-.4m-14.77.19a.48.48,0,0,0-.54.54V31a.48.48,0,0,0,.54.54h3.29A.48.48,0,0,0,114,31V12.06a.48.48,0,0,0-.54-.54Zm1.66-8.21a2.32,2.32,0,0,0-2.64,2.49,2.63,2.63,0,0,0,5.25,0,2.3,2.3,0,0,0-2.61-2.49M101.54,15.13V27.64a29.59,29.59,0,0,1-3.94.21c-4,0-4.59-1.19-4.59-6.36,0-4.95.4-6.36,4.37-6.36Zm-4-3.8c-7.27,0-8.93,2.06-8.93,10,0,8.16,1.63,10.33,8.31,10.33a27.68,27.68,0,0,0,4.63-.32v.18c0,2.85-.87,3.72-4.48,3.72H91.42c-.36,0-.54.15-.54.54v2.14a.55.55,0,0,0,.5.57,42.1,42.1,0,0,0,5.93.4c7.34,0,8.57-2.27,8.6-8.56V12.71a.68.68,0,0,0-.68-.73,42.06,42.06,0,0,0-7.7-.65"/><path class="cls-3" d="M68,1.09c-.43,0-.63.08-.71.4L62,19.85a5.13,5.13,0,0,0-.28,1.36v2.14c0,.44.2.6.6.6h13.4v7a.52.52,0,0,0,.59.59h3.94a.53.53,0,0,0,.6-.59V24h4.73c.43,0,.63-.16.63-.6v-3.3c0-.36-.2-.55-.63-.55H80.84V10.31c0-.52-.28-.59-.72-.44l-3.94,1.4a.69.69,0,0,0-.47.71V19.5H67.24L72.33,1.8c.12-.43,0-.71-.44-.71Z"/><path class="cls-2" d="M50.46,11.33a43.42,43.42,0,0,0-8.09.58c-.33.07-.51.11-.51.58V31c0,.36.15.54.51.54h3.32a.48.48,0,0,0,.55-.54V15.13h4.15c3.4,0,4.23.22,4.23,5.57V31a.48.48,0,0,0,.54.54h3.26A.5.5,0,0,0,59,31V19.9c0-7.55-1.84-8.57-8.53-8.57m-20.6,3.8c3.87,0,4.41,1.26,4.41,6.4s-.54,6.36-4.41,6.36-4.41-1.27-4.41-6.36.54-6.4,4.41-6.4m0-3.8c-7.23,0-8.78,2-8.78,10.2s1.55,10.15,8.78,10.15,8.82-2,8.82-10.15-1.59-10.2-8.82-10.2m-17.17,0c-7.34,0-8.78,2-8.78,10.16s1.44,10.19,8.78,10.19a37.83,37.83,0,0,0,5.71-.39.59.59,0,0,0,.54-.65V28.43c0-.36-.18-.54-.57-.54H12.69c-3.87,0-4.37-1.3-4.37-6.4s.5-6.36,4.37-6.36h5.68c.39,0,.57-.18.57-.54V12.38a.58.58,0,0,0-.54-.65,38,38,0,0,0-5.71-.4"/><g class="cls-4"><path class="cls-5" d="M147.62,1.42s-5.18,0-5.18,5.18V33.36s0,5.18,5.18,5.18h37.62s5.18,0,5.18-5.18V6.6s0-5.18-5.18-5.18Z"/><path class="cls-2" d="M176.49,28.08c-1.29,0-2.21.26-2.21,1.38v.2a1.48,1.48,0,0,0,1,1.51l1.35.51c.46.18.59.34.59.59v.1c0,.36-.22.44-.91.44h-2c-.12,0-.16,0-.16.16v.64c0,.09,0,.14.15.15a19,19,0,0,0,2,.1c1.35,0,2.13-.27,2.13-1.44v-.13a1.39,1.39,0,0,0-1.05-1.5l-1.34-.49c-.43-.17-.57-.36-.57-.61v-.12c0-.32.25-.45.68-.45h1.89a.14.14,0,0,0,.16-.16v-.6c0-.09-.05-.14-.15-.17a10.83,10.83,0,0,0-1.6-.11M171,29.16c1.14,0,1.25.4,1.25,1.8s-.15,1.81-1.31,1.81a10.6,10.6,0,0,1-1.11-.06V29.16Zm0-1.08a11.65,11.65,0,0,0-2.19.19c-.12,0-.19.08-.19.2v7.22c0,.12,0,.17.15.17h1c.1,0,.15,0,.15-.17V33.8a11,11,0,0,0,1.3.06c1.9,0,2.36-.61,2.36-2.94s-.46-2.84-2.53-2.84m-4.65,3.33v1.3a5.6,5.6,0,0,1-1.17.11c-.75,0-1-.14-1-.73s.24-.68.79-.68Zm-1.16-3.33a8.61,8.61,0,0,0-1.69.14c-.1,0-.14,0-.14.16V29c0,.12,0,.15.15.15h1.68c.83,0,1.16.25,1.16.82v.53h-1.48c-1.27,0-2,.33-2,1.63,0,1.49.73,1.72,2.16,1.72a9.25,9.25,0,0,0,2.31-.23.27.27,0,0,0,.21-.3V29.76c0-1.1-.6-1.68-2.41-1.68m-5.31,0a5.63,5.63,0,0,0-1.73.32,4.59,4.59,0,0,0-1.76-.31,9.9,9.9,0,0,0-1.83.17c-.1,0-.15,0-.15.16v5.24c0,.1,0,.16.15.16h.94a.14.14,0,0,0,.15-.16V29.16h.87c.88,0,1.13.05,1.13,1.37v3.12a.14.14,0,0,0,.16.16h.94c.09,0,.13-.05.13-.16l0-3.14a4.25,4.25,0,0,0-.15-1.28,6.53,6.53,0,0,1,1-.08c.89,0,1.12.07,1.12,1.59v2.91a.14.14,0,0,0,.15.16H162c.1,0,.14-.06.14-.16l0-3.3c0-1.94-.58-2.28-2.27-2.28"/><path class="cls-2" d="M174.1,20.42l-4.65,1.85V11.42l4.65-1.86Zm-15.32-9.11,4.65-1.86V20.31l-4.65,1.85ZM164,9.45l4.92,2V22.27l-4.92-2ZM175,8.3a.55.55,0,0,0-.51-.06l-5.26,2.11-5.27-2.11a.49.49,0,0,0-.41,0L158,10.43a.55.55,0,0,0-.35.51V23a.54.54,0,0,0,.55.54.52.52,0,0,0,.21,0l5.26-2.1,5.27,2.1a.49.49,0,0,0,.41,0l5.47-2.19a.53.53,0,0,0,.34-.5v-12A.54.54,0,0,0,175,8.3"/></g></svg>