<svg id="Ebene_1" data-name="Ebene 1" xmlns="http://www.w3.org/2000/svg" width="16" height="16" viewBox="0 0 16 16"><defs><style>.cls-1{fill:#b5ca97;}.cls-1,.cls-2,.cls-3,.cls-4{opacity:0.69;}.cls-2{fill:none;stroke:#103a5d;stroke-linecap:round;stroke-linejoin:round;}.cls-3{fill:#4a7628;}.cls-4{fill:#0098d6;}.cls-5{opacity:0.25;}.cls-6{fill:#103a5d;}</style></defs><title>map_profil</title><polygon class="cls-1" points="1.29 1.88 9.58 1.88 11.48 0.88 13.24 0.82 14.86 1.88 15.02 4.66 14.86 15.47 13.02 14.42 11.24 14.69 9.99 15.32 9.75 15.5 6.69 15.5 1 15.5 1.29 1.88"/><polyline class="cls-2" points="8.31 1.88 1.01 1.88 1.01 15.5 8.31 15.5"/><path class="cls-2" d="M9.81,1.84c-.52.41,2.51-2.7,5,0V15.46a4,4,0,0,0-5,0"/><path class="cls-3" d="M10.15,2.91s2.52-1.57,4.07,0V7.61s-3-.45-3.21-1.55.33-1.07-.53-1.82S10.15,2.91,10.15,2.91Z"/><path class="cls-3" d="M6.51,4s-2.38-1-3.32-.23S2.45,5.19,2.1,5.9A3.7,3.7,0,0,0,2,8.65c.34,1,1.08,1.52,1.37,2.64s1.19,1.34,1.88.7,1.22-2.22,2.24-2S9,9.12,9,8.74a3.23,3.23,0,0,0-.2-2.38C8.27,4.74,7.78,3.81,6.51,4Z"/><path class="cls-4" d="M11.47,9.79a2.25,2.25,0,0,0-1.72.84,3.52,3.52,0,0,0-.47,3.07c.17.08.47.72.47.72a3.11,3.11,0,0,1,2.55-1.29c1.91-.16,1.92-.57,1.92-.57V9.5A4.52,4.52,0,0,0,11.47,9.79Z"/><g class="cls-5"><path d="M16,15.11H2.57A5.91,5.91,0,0,1,5.82,10a5.8,5.8,0,0,0,7,0A5.87,5.87,0,0,1,16,15.11Z"/></g><path class="cls-6" d="M15,15.11H1.57A5.91,5.91,0,0,1,4.82,10a5.8,5.8,0,0,0,7,0A5.87,5.87,0,0,1,15,15.11Z"/><g class="cls-5"><circle cx="9.3" cy="5.93" r="3.71"/></g><circle class="cls-6" cx="8.3" cy="5.93" r="3.71"/></svg>