<svg id="Ebene_1" data-name="Ebene 1" xmlns="http://www.w3.org/2000/svg" width="16" height="16" viewBox="0 0 16 16"><defs><style>.cls-1,.cls-2{fill:#9fb0be;}.cls-1{stroke:#40617d;stroke-miterlimit:10;}.cls-3{fill:#40617d;}</style></defs><title>mapfolder_1</title><path class="cls-1" d="M8.19,4.93,6.64,6a.63.63,0,0,1-.37.12H.93V3.72a.88.88,0,0,1,.76-1H6.27a.63.63,0,0,1,.37.12L8.19,4A.61.61,0,0,1,8.19,4.93Z"/><rect class="cls-2" x="0.76" y="4.43" width="15.01" height="10.23"/><path class="cls-3" d="M15.27,4.93v9.23h-14V4.93h14m.62-1H.64a.38.38,0,0,0-.38.38V14.78a.38.38,0,0,0,.38.38H15.89a.38.38,0,0,0,.38-.38V4.31a.38.38,0,0,0-.38-.38Z"/><path class="cls-1" d="M15.73,6.62v7.8a.38.38,0,0,1-.38.38H1.14a.37.37,0,0,1-.37-.38v-6H6.43l3-2h6.24A.31.31,0,0,1,15.73,6.62Z"/></svg>