<svg id="Ebene_1" data-name="Ebene 1" xmlns="http://www.w3.org/2000/svg" width="16" height="16" viewBox="0 0 16 16"><defs><style>.cls-1{fill:#103a5d;}.cls-2{fill:#0098d6;}</style></defs><title>map_profil_2</title><path class="cls-1" d="M15.51,1.41h0a.5.5,0,0,0-.46,0L10.37,3.24,5.7,1.37a.4.4,0,0,0-.37,0L.47,3.31a.45.45,0,0,0-.3.45v10.7a.47.47,0,0,0,.2.41A.53.53,0,0,0,.64,15a.4.4,0,0,0,.19,0L5.51,13l4.68,1.88a.48.48,0,0,0,.37,0L15.42,13a.49.49,0,0,0,.3-.45V1.81A.49.49,0,0,0,15.51,1.41ZM5.28,12.08,1.14,13.74V4.08L5.28,2.43Zm4.85,1.75L5.76,12.08V2.43l4.37,1.75Zm4.62-1.65-4.14,1.66V4.18l4.14-1.65Z"/><polygon class="cls-2" points="14.75 2.53 14.75 12.18 10.61 13.84 10.61 4.18 14.75 2.53"/><polygon class="cls-2" points="10.13 4.18 10.13 13.83 5.76 12.08 5.76 2.43 10.13 4.18"/><polygon class="cls-2" points="5.28 2.43 5.28 12.08 1.14 13.74 1.14 4.08 5.28 2.43"/><rect class="cls-1" x="9.72" y="3.72" width="1" height="11"/><rect class="cls-1" x="4.72" y="1.72" width="1" height="11"/></svg>