<svg id="Ebene_1" data-name="Ebene 1" xmlns="http://www.w3.org/2000/svg" width="16" height="16" viewBox="0 0 16 16"><defs><style>.cls-1{fill:#bf2c38;stroke:#000;stroke-miterlimit:10;stroke-width:0.25px;}.cls-2{fill:#fff;}</style></defs><title>einsätze</title><path class="cls-1" d="M12.18,8.22h0v4.46h-8V8.22h0c0-.07,0-.14,0-.21A3.81,3.81,0,0,1,8.07,4.39h.12a3.82,3.82,0,0,1,4,3.62C12.19,8.08,12.18,8.15,12.18,8.22Z"/><path class="cls-2" d="M8.07,12.9v-7a.87.87,0,0,0-.51-.79,1,1,0,0,0-.9,0,3.24,3.24,0,0,0-1.88,2.8v5Z"/><rect class="cls-1" x="3.49" y="14.08" width="9.4" height="0.92"/><line class="cls-1" x1="8.11" y1="0.39" x2="8.11" y2="2.47"/><rect class="cls-1" x="7.73" y="0.39" width="0.76" height="2.08"/><line class="cls-1" x1="15.87" y1="5.09" x2="13.87" y2="5.8"/><polygon class="cls-1" points="14 6.15 13.74 5.45 15.74 4.74 16 5.44 14 6.15"/><line class="cls-1" x1="13.73" y1="1.66" x2="12.38" y2="3.28"/><polygon class="cls-1" points="12.67 3.51 12.09 3.04 13.43 1.43 14.02 1.9 12.67 3.51"/><line class="cls-1" x1="0.36" y1="5.09" x2="2.35" y2="5.8"/><polygon class="cls-1" points="2.23 6.15 0.23 5.44 0.48 4.74 2.48 5.45 2.23 6.15"/><line class="cls-1" x1="2.5" y1="1.66" x2="3.85" y2="3.28"/><polygon class="cls-1" points="3.56 3.51 2.21 1.9 2.8 1.43 4.14 3.04 3.56 3.51"/></svg>