<svg id="Ebene_1" data-name="Ebene 1" xmlns="http://www.w3.org/2000/svg" width="16" height="16" viewBox="0 0 16 16"><defs><style>.cls-1{fill:#103a5d;}</style></defs><title>starboard</title><path class="cls-1" d="M8.43.31,10,5.05a.46.46,0,0,0,.43.32h5a.45.45,0,0,1,.26.82l-4,2.93a.45.45,0,0,0-.16.51L13,14.36a.46.46,0,0,1-.7.51L8.27,12a.45.45,0,0,0-.54,0l-4,2.92a.46.46,0,0,1-.7-.51L4.54,9.63a.45.45,0,0,0-.16-.51l-4-2.93a.45.45,0,0,1,.26-.82h5A.46.46,0,0,0,6,5.05L7.57.31A.45.45,0,0,1,8.43.31Z"/></svg>