<svg id="Ebene_1" data-name="Ebene 1" xmlns="http://www.w3.org/2000/svg" width="16" height="16" viewBox="0 0 16 16"><defs><style>.cls-1{fill:#fff;}.cls-2{fill:#333;}.cls-3{fill:#103a5d;}.cls-4{fill:#0098d6;}.cls-5{fill:#bdccd4;}</style></defs><title>tabelle</title><rect class="cls-1" x="1.13" y="1.13" width="4.62" height="4.62"/><path class="cls-2" d="M5.62,1.25V5.62H1.25V1.25H5.62M5.87,1H1V5.87H5.87V1Z"/><rect class="cls-3" x="2" y="2" width="2.87" height="2.87"/><rect class="cls-1" x="5.69" y="1.13" width="4.62" height="4.62"/><path class="cls-2" d="M10.18,1.25V5.62H5.82V1.25h4.36M10.43,1H5.57V5.87h4.86V1Z"/><rect class="cls-3" x="6.63" y="2.07" width="2.74" height="2.74"/><rect class="cls-1" x="10.26" y="1.13" width="4.62" height="4.62"/><path class="cls-2" d="M14.75,1.25V5.62H10.38V1.25h4.37M15,1H10.13V5.87H15V1Z"/><rect class="cls-3" x="11.2" y="2.07" width="2.74" height="2.74"/><rect class="cls-1" x="1.13" y="5.69" width="4.62" height="4.62"/><path class="cls-2" d="M5.62,5.82v4.36H1.25V5.82H5.62m.25-.25H1v4.86H5.87V5.57Z"/><rect class="cls-3" x="2.07" y="6.63" width="2.74" height="2.74"/><rect class="cls-1" x="5.69" y="5.69" width="4.62" height="4.62"/><path class="cls-2" d="M10.18,5.82v4.36H5.82V5.82h4.36m.25-.25H5.57v4.86h4.86V5.57Z"/><rect class="cls-4" x="6.63" y="6.63" width="2.74" height="2.74"/><rect class="cls-1" x="10.26" y="5.69" width="4.62" height="4.62"/><path class="cls-2" d="M14.75,5.82v4.36H10.38V5.82h4.37M15,5.57H10.13v4.86H15V5.57Z"/><rect class="cls-4" x="11.2" y="6.63" width="2.74" height="2.74"/><rect class="cls-1" x="1.13" y="10.26" width="4.62" height="4.62"/><path class="cls-2" d="M5.62,10.38v4.37H1.25V10.38H5.62m.25-.25H1V15H5.87V10.13Z"/><rect class="cls-3" x="2.07" y="11.2" width="2.74" height="2.74"/><rect class="cls-1" x="5.69" y="10.26" width="4.62" height="4.62"/><path class="cls-2" d="M10.18,10.38v4.37H5.82V10.38h4.36m.25-.25H5.57V15h4.86V10.13Z"/><rect class="cls-4" x="6.63" y="11.2" width="2.74" height="2.74"/><rect class="cls-1" x="10.26" y="10.26" width="4.62" height="4.62"/><path class="cls-2" d="M14.75,10.38v4.37H10.38V10.38h4.37m.25-.25H10.13V15H15V10.13Z"/><rect class="cls-5" x="11.2" y="11.2" width="2.74" height="2.74"/></svg>