<svg id="Ebene_1" data-name="Ebene 1" xmlns="http://www.w3.org/2000/svg" width="16" height="16" viewBox="0 0 16 16"><defs><style>.cls-1{fill:#333;}.cls-1,.cls-2,.cls-3{opacity:0.65;}.cls-2{fill:#40617d;stroke-miterlimit:10;}.cls-2,.cls-4{stroke:#103a5d;stroke-width:0.5px;}.cls-4{fill:none;stroke-linejoin:round;}</style></defs><title>tracking_pois_1</title><path class="cls-1" d="M2.47,15.43,8.79,11.6a.19.19,0,0,1,.13,0l1.09.11a.19.19,0,0,1,.09.34L3.61,15.89a.16.16,0,0,1-.12,0l-1-.1a.18.18,0,0,1-.05-.36h0Z"/><rect class="cls-2" x="1.94" y="1.44" width="1.84" height="14.52" rx="0.82"/><g class="cls-3"><path class="cls-4" d="M4.62,2V8.66a4.16,4.16,0,0,0,4.6,0c2.38-1.59,5.07.16,5.07.16V2.31S11.44.41,9.22,2A4.26,4.26,0,0,1,4.62,2Z"/></g></svg>