<svg id="Ebene_1" data-name="Ebene 1" xmlns="http://www.w3.org/2000/svg" width="16" height="16" viewBox="0 0 16 16"><defs><style>.cls-1,.cls-2{fill:none;}.cls-1{stroke:#70899e;}.cls-1,.cls-2,.cls-3,.cls-4{stroke-miterlimit:10;opacity:0.65;}.cls-2,.cls-3{stroke:#103a5d;}.cls-3{fill:#103a5d;}.cls-4{fill:#40617d;stroke:#40617d;}</style></defs><title>tracking_tracks_1</title><path class="cls-1" d="M8.67,3s.16,1.45-1.76.48S4,1.28,3.06,1.76,1.29,1.28,1.29,3,1,5,2.41,7.37s1.77,2.57,1.45,4.18-1.61,1.28-1.77,1.6-.8,1,.16,1.45,1.29,1.28,2.73.64,1.77-1.93,2.57-2.09,1.12-1.44,1.61-1.76,1.12-.65,1.12.48.48,1.12.8,1.28,1.12,0,1.12.64.16,1.61,2.09,1.13,1.44-3.69,1.28-4.18S12.36,10.1,12.2,8.5s-.16-2.41,1-2.57,2.08,0,2.08-1-3.53-1-2.89-2.25"/><path class="cls-2" d="M8.67,2.4s.16,1.44-1.76.48S4,.63,3.06,1.12,1.29.63,1.29,2.4,1,4.33,2.41,6.73,4.18,9.3,3.86,10.91s-1.61,1.28-1.77,1.6-.8,1,.16,1.44S3.54,15.24,5,14.6s1.77-1.93,2.57-2.09,1.12-1.44,1.61-1.77,1.12-.64,1.12.49.48,1.12.8,1.28,1.12,0,1.12.64.16,1.61,2.09,1.13,1.44-3.7,1.28-4.18-3.21-.64-3.37-2.24-.16-2.41,1-2.57,2.08,0,2.08-1-3.53-1-2.89-2.25"/><circle class="cls-1" cx="8.35" cy="2.83" r="1.2"/><circle class="cls-3" cx="8.35" cy="2.61" r="1.2"/><circle class="cls-1" cx="12.61" cy="2.62" r="1.12"/><circle class="cls-4" cx="12.61" cy="2.41" r="1.12"/></svg>