<svg id="Ebene_1" data-name="Ebene 1" xmlns="http://www.w3.org/2000/svg" width="16" height="16" viewBox="0 0 16 16"><defs><style>.cls-1{opacity:0.65;}.cls-2{fill:#0098d6;}.cls-3{fill:#103a5d;}</style></defs><title>data_kategorie_1</title><g class="cls-1"><path class="cls-2" d="M4.72,1.06H15.47a.12.12,0,0,1,.12.12V2.95a.12.12,0,0,1-.12.12H4.72a.13.13,0,0,1-.12-.12V1.19A.13.13,0,0,1,4.72,1.06Z"/><path class="cls-3" d="M15.47,1.19V3H4.72V1.19H15.47m0-.25H4.72a.25.25,0,0,0-.25.25V3a.25.25,0,0,0,.25.25H15.47A.26.26,0,0,0,15.72,3V1.19a.25.25,0,0,0-.25-.25Z"/></g><g class="cls-1"><rect class="cls-2" x="4.59" y="4.62" width="8.92" height="2.01" rx="0.13"/><path class="cls-3" d="M13.39,4.75V6.51H4.72V4.75h8.67m0-.25H4.72a.25.25,0,0,0-.25.25V6.51a.25.25,0,0,0,.25.25h8.67a.26.26,0,0,0,.25-.25V4.75a.25.25,0,0,0-.25-.25Z"/></g><g class="cls-1"><rect class="cls-2" x="4.59" y="8.18" width="7.48" height="2.01" rx="0.13"/><path class="cls-3" d="M12,8.31v1.76H4.72V8.31H12m0-.25H4.72a.25.25,0,0,0-.25.25v1.76a.25.25,0,0,0,.25.25H12a.26.26,0,0,0,.25-.25V8.31A.25.25,0,0,0,12,8.06Z"/></g><g class="cls-1"><rect class="cls-2" x="4.59" y="11.74" width="5.24" height="2.01" rx="0.13"/><path class="cls-3" d="M9.71,11.87v1.76h-5V11.87h5m0-.25h-5a.25.25,0,0,0-.25.25v1.76a.25.25,0,0,0,.25.25h5a.26.26,0,0,0,.25-.25V11.87a.25.25,0,0,0-.25-.25Z"/></g><g class="cls-1"><rect class="cls-2" x="0.62" y="1.06" width="2.01" height="2.01" rx="0.13"/><path class="cls-3" d="M2.51,1.19V3H.75V1.19H2.51m0-.25H.75a.25.25,0,0,0-.25.25V3a.25.25,0,0,0,.25.25H2.51A.26.26,0,0,0,2.76,3V1.19A.25.25,0,0,0,2.51.94Z"/></g><g class="cls-1"><rect class="cls-2" x="0.62" y="4.62" width="2.01" height="2.01" rx="0.13"/><path class="cls-3" d="M2.51,4.75V6.51H.75V4.75H2.51m0-.25H.75a.25.25,0,0,0-.25.25V6.51a.25.25,0,0,0,.25.25H2.51a.26.26,0,0,0,.25-.25V4.75a.25.25,0,0,0-.25-.25Z"/></g><g class="cls-1"><rect class="cls-2" x="0.62" y="8.18" width="2.01" height="2.01" rx="0.13"/><path class="cls-3" d="M2.51,8.31v1.76H.75V8.31H2.51m0-.25H.75a.25.25,0,0,0-.25.25v1.76a.25.25,0,0,0,.25.25H2.51a.26.26,0,0,0,.25-.25V8.31a.25.25,0,0,0-.25-.25Z"/></g><g class="cls-1"><rect class="cls-2" x="0.62" y="11.74" width="2.01" height="2.01" rx="0.13"/><path class="cls-3" d="M2.51,11.87v1.76H.75V11.87H2.51m0-.25H.75a.25.25,0,0,0-.25.25v1.76a.25.25,0,0,0,.25.25H2.51a.26.26,0,0,0,.25-.25V11.87a.25.25,0,0,0-.25-.25Z"/></g></svg>