<svg id="Ebene_1" data-name="Ebene 1" xmlns="http://www.w3.org/2000/svg" width="16" height="16" viewBox="0 0 16 16"><defs><style>.cls-1{fill:#0098d6;stroke:#103a5d;stroke-miterlimit:10;stroke-width:0.75px;}</style></defs><title>editor_category</title><path class="cls-1" d="M14.14,14.3A1.89,1.89,0,0,1,11.52,14a2.36,2.36,0,0,1-.57-.9l-2.8,2.79-2.6-2.6A1.69,1.69,0,0,0,6,13,2,2,0,1,0,3.1,10.12a1.5,1.5,0,0,0-.33.43L.54,8.32,2.9,6A2,2,0,0,0,5.79,3.07L8.15.71l2.62,2.62a2,2,0,0,1,.57-1.09,2,2,0,0,1,2.89,2.89,2,2,0,0,1-1.09.57l2.63,2.62L13,11.1a2.63,2.63,0,0,1,.9.57A1.89,1.89,0,0,1,14.14,14.3Z"/></svg>