<svg id="Ebene_1" data-name="Ebene 1" xmlns="http://www.w3.org/2000/svg" width="16" height="16" viewBox="0 0 16 16"><defs><style>.cls-1{fill:#b5ca97;}.cls-2{fill:none;stroke:#103a5d;stroke-linecap:round;stroke-linejoin:round;stroke-width:0.75px;}.cls-3{fill:#4a7628;}.cls-4{fill:#0098d6;}.cls-5{fill:#103a5d;}.cls-6{fill:#fff;}</style></defs><title>geopicker</title><polygon class="cls-1" points="1.29 1.7 9.57 1.7 11.47 0.7 13.23 0.65 14.84 1.7 15 4.47 14.84 15.28 13.01 14.23 11.23 14.5 9.98 15.13 9.74 15.31 6.68 15.31 1 15.31 1.29 1.7"/><polyline class="cls-2" points="8.3 1.7 1.01 1.7 1.01 15.31 8.3 15.31"/><path class="cls-2" d="M9.8,1.66c-.52.41,2.51-2.7,5,0V15.27a4,4,0,0,0-5,0"/><path class="cls-3" d="M10.14,2.73s2.51-1.57,4.06,0V7.42S11.19,7,11,5.88s.33-1.07-.53-1.83S10.14,2.73,10.14,2.73Z"/><path class="cls-3" d="M6.5,3.79s-2.37-1-3.32-.23S2.44,5,2.1,5.71A3.7,3.7,0,0,0,2,8.46C2.29,9.48,3,10,3.32,11.1s1.19,1.34,1.88.7,1.22-2.22,2.23-2S9,8.93,9,8.55a3.2,3.2,0,0,0-.2-2.37C8.26,4.56,7.78,3.63,6.5,3.79Z"/><path class="cls-4" d="M11.46,9.6a2.24,2.24,0,0,0-1.72.84,3.5,3.5,0,0,0-.47,3.06c.17.09.47.73.47.73a3.1,3.1,0,0,1,2.54-1.29c1.91-.16,1.93-.57,1.93-.57V9.31A4.52,4.52,0,0,0,11.46,9.6Z"/><path class="cls-5" d="M4.53,15a.38.38,0,0,1-.37-.37V11.89H1.47a.38.38,0,0,1-.37-.37V10.06a.38.38,0,0,1,.37-.38H4.16V7a.37.37,0,0,1,.37-.37H6A.36.36,0,0,1,6.36,7V9.68H9.05a.38.38,0,0,1,.37.38v1.46a.38.38,0,0,1-.37.37H6.36v2.69A.37.37,0,0,1,6,15Z"/><path class="cls-6" d="M6,7v3.06H9.05v1.46H6v3.06H4.53V11.52H1.47V10.06H4.53V7H6m0-.75H4.53A.76.76,0,0,0,3.78,7V9.31H1.47a.76.76,0,0,0-.75.75v1.46a.76.76,0,0,0,.75.75H3.78v2.31a.76.76,0,0,0,.75.75H6a.76.76,0,0,0,.75-.75V12.27H9.05a.76.76,0,0,0,.75-.75V10.06a.76.76,0,0,0-.75-.75H6.74V7A.76.76,0,0,0,6,6.25Z"/></svg>