<svg id="Ebene_1" data-name="Ebene 1" xmlns="http://www.w3.org/2000/svg" width="16" height="16" viewBox="0 0 16 16"><defs><style>.cls-1{fill:#fff;}.cls-2{fill:#40617d;}.cls-3{fill:#cceaf7;stroke:#40617d;stroke-width:0.5px;}.cls-3,.cls-4{stroke-miterlimit:10;}.cls-4{fill:none;stroke:#9fb0be;stroke-linecap:round;stroke-width:1.5px;}</style></defs><title>link_2</title><path class="cls-1" d="M3.73,13.84a1.9,1.9,0,0,1-1.37-.57,1.94,1.94,0,0,1,0-2.75L4.31,8.57A1.94,1.94,0,0,1,5.69,8a1.9,1.9,0,0,1,1.37.57,1.94,1.94,0,0,1,0,2.75L5.11,13.27A1.94,1.94,0,0,1,3.73,13.84Z"/><path class="cls-2" d="M5.69,8.75A1.2,1.2,0,0,1,6.88,9.94a1.19,1.19,0,0,1-.35.85l-1.95,2a1.19,1.19,0,0,1-.85.35A1.2,1.2,0,0,1,2.54,11.9a1.19,1.19,0,0,1,.35-.85l1.95-2a1.19,1.19,0,0,1,.85-.35m0-1.5A2.72,2.72,0,0,0,3.78,8L1.83,10a2.68,2.68,0,0,0,0,3.81,2.65,2.65,0,0,0,1.9.79,2.69,2.69,0,0,0,1.91-.79l2-2a2.69,2.69,0,0,0-1.9-4.6Z"/><path class="cls-1" d="M9.83,7.64A1.95,1.95,0,0,1,7.88,5.7a2,2,0,0,1,.57-1.38l2-1.95a1.91,1.91,0,0,1,1.37-.57,1.94,1.94,0,0,1,1.38.57,1.9,1.9,0,0,1,.57,1.37,1.94,1.94,0,0,1-.57,1.38l-2,2A1.9,1.9,0,0,1,9.83,7.64Z"/><path class="cls-2" d="M11.78,2.55a1.19,1.19,0,0,1,.85.35,1.15,1.15,0,0,1,.35.84,1.19,1.19,0,0,1-.35.85l-2,2a1.15,1.15,0,0,1-.84.35A1.2,1.2,0,0,1,8.63,5.7,1.23,1.23,0,0,1,9,4.85l2-1.95a1.18,1.18,0,0,1,.84-.35m0-1.5a2.65,2.65,0,0,0-1.9.79l-2,2a2.7,2.7,0,0,0,1.91,4.6,2.65,2.65,0,0,0,1.9-.79l2-1.95a2.7,2.7,0,0,0-1.91-4.6Z"/><rect class="cls-3" x="7.06" y="5.25" width="1.4" height="5.25" rx="0.7" transform="translate(7.84 -3.18) rotate(45)"/><path class="cls-4" d="M1.3,9.23A6.38,6.38,0,0,1,1,7.31,6.18,6.18,0,0,1,7.18,1.13a6.33,6.33,0,0,1,2,.31"/><path class="cls-4" d="M14,6.31a6.12,6.12,0,0,1,.3,1.92,6.19,6.19,0,0,1-6.18,6.19,6,6,0,0,1-1.95-.32"/></svg>