<svg id="Ebene_1" data-name="Ebene 1" xmlns="http://www.w3.org/2000/svg" width="16" height="16" viewBox="0 0 16 16"><defs><style>.cls-1{opacity:0.5;}.cls-2{fill:#b5ca97;}.cls-3{fill:none;stroke:#103a5d;stroke-linecap:round;stroke-linejoin:round;stroke-width:0.75px;}.cls-4{fill:#4a7628;}.cls-5{fill:#0098d6;}</style></defs><title>map_1</title><g class="cls-1"><polygon class="cls-2" points="1.29 1.71 9.54 1.72 11.44 0.71 13.19 0.66 14.79 1.72 14.95 4.48 14.79 15.24 12.96 14.2 11.19 14.46 9.95 15.09 9.71 15.27 6.66 15.27 1 15.27 1.29 1.71"/><polyline class="cls-3" points="8.27 1.71 1.01 1.71 1.01 15.27 8.27 15.27"/><path class="cls-4" d="M10.11,2.74s2.5-1.56,4,0v4.7S11.15,7,11,5.87s.33-1.06-.53-1.81S10.11,2.74,10.11,2.74Z"/><path class="cls-4" d="M6.48,3.79s-2.36-1-3.3-.22S2.44,5,2.1,5.71a3.67,3.67,0,0,0-.16,2.74C2.28,9.46,3,10,3.31,11.07s1.19,1.34,1.87.71,1.22-2.21,2.23-2S8.92,8.91,9,8.54a3.3,3.3,0,0,0-.21-2.37C8.23,4.56,7.75,3.64,6.48,3.79Z"/><path class="cls-5" d="M11.42,9.58a2.27,2.27,0,0,0-1.71.84,3.48,3.48,0,0,0-.47,3.05c.17.09.47.72.47.72a3.1,3.1,0,0,1,2.53-1.28c1.9-.16,1.92-.57,1.92-.57V9.29A4.57,4.57,0,0,0,11.42,9.58Z"/><path class="cls-3" d="M9.77,1.67c-.52.41,2.5-2.69,5,0V15.23a4,4,0,0,0-5,0"/></g></svg>