<svg id="Ebene_1" data-name="Ebene 1" xmlns="http://www.w3.org/2000/svg" width="16" height="16" viewBox="0 0 16 16"><defs><style>.cls-1{fill:#103a5d;stroke:#fff;stroke-miterlimit:10;stroke-width:1.5px;}</style></defs><title>source_tables</title><path class="cls-1" d="M14.74,12.78h0v0C14.74,14,11.56,15,7.63,15S.51,14,.51,12.81v0h0V10.56c0-1.2,3.21-2.17,7.12-2.17s7.07,1,7.11,2.17v2.22Z"/><path class="cls-1" d="M14.74,9.25h0v0c0,1.21-3.18,2.19-7.11,2.19S.51,10.49.51,9.28v0h0V7c0-1.2,3.21-2.17,7.12-2.17s7.07,1,7.11,2.17V9.25Z"/><path class="cls-1" d="M14.74,5.92h0V6c0,1.21-3.18,2.19-7.11,2.19S.51,7.16.51,6v0h0V3.7c0-1.2,3.21-2.17,7.12-2.17s7.07,1,7.11,2.17V5.92Z"/><path class="cls-1" d="M14.74,12.38v0Z"/><ellipse class="cls-1" cx="7.63" cy="2.67" rx="7.12" ry="2.19"/></svg>